<svg width="662" height="58" viewBox="0 0 662 58" fill="none" xmlns="http://www.w3.org/2000/svg">
<path d="M133.45 10.5007C131.928 8.82667 129.899 7.45701 127.362 6.39172C124.826 5.27572 121.935 4.7177 118.688 4.7177C113.92 4.7177 110.445 5.63081 108.263 7.45701C106.082 9.2325 104.991 11.6674 104.991 14.7618C104.991 16.8924 105.524 18.5664 106.589 19.7839C107.655 21.0014 109.278 22.016 111.459 22.8276C113.691 23.5885 116.532 24.3494 119.982 25.1103C123.837 25.922 127.16 26.8858 129.95 28.0018C132.74 29.1178 134.896 30.6397 136.417 32.5674C137.939 34.4443 138.7 37.0061 138.7 40.2526C138.7 43.5501 137.863 46.2894 136.189 48.4706C134.515 50.6518 132.207 52.2752 129.265 53.3405C126.323 54.3551 122.975 54.8623 119.221 54.8623C110.8 54.8623 103.571 52.2497 97.5344 47.0248L100.198 42.6876C102.125 44.7166 104.763 46.4667 108.111 47.9379C111.51 49.4092 115.264 50.1446 119.373 50.1446C123.634 50.1446 126.982 49.3582 129.417 47.7858C131.852 46.2133 133.069 43.8796 133.069 40.7853C133.069 38.5531 132.461 36.7778 131.243 35.4589C130.026 34.0892 128.199 32.9732 125.765 32.1108C123.33 31.2484 120.337 30.4114 116.786 29.5998C113.032 28.7374 109.861 27.7736 107.274 26.7083C104.738 25.643 102.81 24.248 101.491 22.5232C100.173 20.7985 99.5128 18.465 99.5128 15.5228C99.5128 12.1747 100.325 9.35931 101.948 7.07655C103.622 4.74308 105.905 2.99295 108.796 1.82621C111.688 0.608736 115.01 0 118.764 0C122.315 0 125.511 0.558009 128.352 1.67402C131.193 2.73931 133.754 4.26115 136.037 6.23954L133.45 10.5007Z" fill="white"/>
<path fill-rule="evenodd" clip-rule="evenodd" d="M27.0887 0.380455H22.5993L0 54.4057H5.7069L12.6313 37.5133H36.9046L43.9051 54.4057H49.5359L27.0887 0.380455ZM24.806 6.62L35.6871 33.3283H13.7726L24.806 6.62Z" fill="white"/>
<path fill-rule="evenodd" clip-rule="evenodd" d="M92.8154 47.7097C94.1851 45.5791 94.8699 43.1696 94.8699 40.4809C94.8699 37.1836 93.9568 34.2921 92.1306 31.8064C90.3044 29.3208 87.8695 27.6214 84.8258 26.7083C87.2607 25.5923 89.163 23.8929 90.5327 21.6101C91.9023 19.3274 92.5872 16.8417 92.5872 14.1531C92.5872 11.8703 92.08 9.68905 91.0653 7.60919C90.051 5.47862 88.6304 3.75387 86.8042 2.43494C84.978 1.06528 82.7968 0.380455 80.2603 0.380455H54.2368V54.4057H79.7276C82.4669 54.4057 84.978 53.8225 87.2607 52.6556C89.5945 51.4382 91.4458 49.7896 92.8154 47.7097ZM59.5633 24.9582V5.02206H78.5862C80.2603 5.02206 81.757 5.47862 83.0757 6.39172C84.3947 7.25411 85.4345 8.4462 86.1954 9.96804C86.9564 11.4899 87.3368 13.1639 87.3368 14.9901C87.3368 16.7656 86.9312 18.4142 86.1193 19.9361C85.3584 21.4072 84.268 22.6247 82.8474 23.5885C81.4777 24.5016 79.9053 24.9582 78.1297 24.9582H59.5633ZM88.326 34.5457C89.1379 36.1183 89.5435 37.7923 89.5435 39.5678C89.5435 41.3434 89.0869 43.0174 88.1738 44.5899C87.3117 46.1117 86.1448 47.3547 84.6736 48.3184C83.2027 49.2821 81.5538 49.7641 79.7276 49.7641H59.5633V29.2954H80.2603C82.0359 29.2954 83.6083 29.7773 84.978 30.7411C86.3986 31.705 87.5145 32.9732 88.326 34.5457Z" fill="white"/>
<path fill-rule="evenodd" clip-rule="evenodd" d="M156.462 52.5034C159.556 54.0253 163.006 54.7862 166.81 54.7862C170.412 54.7862 173.76 54.0508 176.854 52.5795C179.949 51.1083 182.637 49.1048 184.92 46.5683C187.203 43.9811 188.978 41.0642 190.247 37.8177C191.515 34.5204 192.149 31.0709 192.149 27.4692C192.149 24.0704 191.54 20.7477 190.323 17.5011C189.156 14.2546 187.431 11.3123 185.148 8.67448C182.916 6.03664 180.253 3.9314 177.159 2.35885C174.064 0.786285 170.64 0 166.886 0C163.285 0 159.937 0.76092 156.842 2.28275C153.748 3.75387 151.034 5.78299 148.7 8.37011C146.418 10.9065 144.642 13.8234 143.374 17.1207C142.106 20.3673 141.472 23.7914 141.472 27.3931C141.472 30.8426 142.08 34.216 143.298 37.5133C144.515 40.7598 146.24 43.6768 148.472 46.2639C150.704 48.851 153.367 50.931 156.462 52.5034ZM148.244 35.8393C147.28 33.1507 146.798 30.3353 146.798 27.3931C146.798 24.6031 147.255 21.8638 148.168 19.1752C149.131 16.4866 150.476 14.077 152.201 11.9464C153.976 9.76515 156.081 8.04037 158.516 6.77218C161.002 5.504 163.767 4.86988 166.81 4.86988C169.752 4.86988 172.441 5.47862 174.876 6.69609C177.311 7.91356 179.416 9.58759 181.192 11.7182C183.018 13.8487 184.413 16.2583 185.377 18.9469C186.34 21.6355 186.822 24.4509 186.822 27.3931C186.822 30.1831 186.366 32.9224 185.453 35.611C184.54 38.2488 183.195 40.6586 181.42 42.8398C179.695 45.0209 177.59 46.7711 175.104 48.0901C172.669 49.3582 169.905 49.9924 166.81 49.9924C163.868 49.9924 161.154 49.3837 158.668 48.1662C156.234 46.8981 154.128 45.1986 152.353 43.068C150.577 40.9375 149.208 38.528 148.244 35.8393Z" fill="white"/>
<path d="M199.147 54.4057V0.380455H204.474V49.688H235.672V54.4057H199.147Z" fill="white"/>
<path d="M249.274 52.5034C252.216 54.0253 255.818 54.7862 260.079 54.7862C264.238 54.7862 267.764 54.0759 270.656 52.6556C273.547 51.1844 275.88 49.1809 277.656 46.6444C279.482 44.1078 280.801 41.2163 281.613 37.9699C282.424 34.6725 282.83 31.2231 282.83 27.6214V0.380455H277.504V27.6214C277.504 30.3607 277.225 33.0746 276.667 35.7632C276.159 38.4009 275.246 40.8108 273.928 42.992C272.609 45.1225 270.808 46.822 268.525 48.0901C266.293 49.3582 263.452 49.9924 260.003 49.9924C256.655 49.9924 253.864 49.3837 251.633 48.1662C249.4 46.8981 247.625 45.1986 246.306 43.068C244.987 40.9375 244.023 38.5531 243.415 35.9154C242.857 33.2268 242.578 30.4622 242.578 27.6214V0.380455H237.327V27.6214C237.327 31.0709 237.708 34.4189 238.469 37.6655C239.23 40.8614 240.498 43.7529 242.273 46.34C244.049 48.9271 246.382 50.9816 249.274 52.5034Z" fill="white"/>
<path d="M330.835 5.09816H311.584V54.4057H306.258V5.09816H287.006V0.380455H330.835V5.09816Z" fill="white"/>
<path d="M372.18 54.4057V49.688H341.211V29.0671H367.614V24.5777H341.211V5.09816H371.495V0.380455H335.884V54.4057H372.18Z" fill="white"/>
<path d="M379.209 54.4057V0.380455H384.535V49.688H415.732V54.4057H379.209Z" fill="white"/>
<path d="M429.866 29.4476L412.213 0.380455H406.354L427.203 34.1653V54.4057H432.53V34.3175L453.455 0.380455H447.672L429.866 29.4476Z" fill="white"/>
<path d="M461.726 46.4922L491.858 9.58758H462.563V0.380455H504.337V8.29402L475.194 45.1986H504.566V54.4057H461.726V46.4922Z" fill="white"/>
<path d="M550.293 54.4057V45.1986H523.281V31.1216H546.032V22.5993H523.281V9.58758H549.608V0.380455H512.78V54.4057H550.293Z" fill="white"/>
<path fill-rule="evenodd" clip-rule="evenodd" d="M558.481 54.4057V0.380455H582.374C584.858 0.380455 587.141 0.887734 589.222 1.90229C591.352 2.91686 593.179 4.28652 594.701 6.01126C596.272 7.736 597.463 9.66367 598.277 11.7942C599.137 13.9248 599.57 16.1061 599.57 18.3382C599.57 21.7877 598.68 24.9582 596.907 27.8497C595.18 30.7411 592.821 32.821 589.831 34.0892L602.158 54.4057H590.592L579.482 36.2959H568.981V54.4057H558.481ZM568.981 27.0887H582.145C584.124 27.0887 585.744 26.2517 587.015 24.5777C588.332 22.853 588.994 20.7731 588.994 18.3382C588.994 16.6641 588.636 15.1677 587.928 13.8487C587.217 12.5298 586.304 11.4899 585.189 10.729C584.124 9.96804 582.956 9.58758 581.689 9.58758H568.981V27.0887Z" fill="white"/>
<path fill-rule="evenodd" clip-rule="evenodd" d="M621.036 52.5034C624.285 54.0253 627.884 54.7862 631.841 54.7862C635.646 54.7862 639.146 54.0508 642.342 52.5795C645.591 51.1083 648.38 49.1048 650.712 46.5683C653.097 43.9811 654.95 41.0642 656.267 37.8177C657.587 34.5204 658.245 31.0962 658.245 27.5453C658.245 24.1465 657.613 20.8238 656.343 17.5772C655.125 14.2799 653.352 11.3123 651.016 8.67448C648.733 6.03664 645.971 3.9314 642.722 2.35885C639.526 0.786285 635.977 0 632.069 0C628.215 0 624.666 0.76092 621.416 2.28275C618.221 3.75387 615.432 5.78299 613.046 8.37011C610.665 10.9065 608.812 13.8234 607.492 17.1207C606.175 20.3673 605.513 23.7914 605.513 27.3931C605.513 30.8426 606.149 34.216 607.415 37.5133C608.686 40.7598 610.459 43.7023 612.742 46.34C615.078 48.9271 617.84 50.9816 621.036 52.5034ZM617.992 36.2198C616.775 33.4805 616.166 30.5382 616.166 27.3931C616.166 24.4509 616.775 21.6101 617.992 18.8708C619.21 16.0808 620.986 13.798 623.319 12.0225C625.655 10.247 628.52 9.35931 631.917 9.35931C635.166 9.35931 637.955 10.2217 640.287 11.9464C640.885 12.3646 641.444 12.8161 641.973 13.3007L618.342 36.9309C618.221 36.6978 618.106 36.4608 617.992 36.2198ZM623.235 42.7964L646.276 19.7585C647.204 22.1546 647.668 24.6994 647.668 27.3931C647.668 30.3353 647.059 33.2015 645.842 35.9915C644.624 38.7814 642.852 41.0642 640.515 42.8398C638.183 44.6154 635.318 45.503 631.917 45.503C628.622 45.503 625.78 44.6405 623.395 42.9159C623.342 42.8763 623.288 42.8363 623.235 42.7964Z" fill="white"/>
</svg>
