<svg width="36" height="36" viewBox="0 0 36 36" fill="none" xmlns="http://www.w3.org/2000/svg">
<path d="M6 18C6 14.8174 7.26428 11.7652 9.51472 9.51472C11.7652 7.26428 14.8174 6 18 6C21.1826 6 24.2348 7.26428 26.4853 9.51472C28.7357 11.7652 30 14.8174 30 18C30 21.1826 28.7357 24.2348 26.4853 26.4853C24.2348 28.7357 21.1826 30 18 30C14.8174 30 11.7652 28.7357 9.51472 26.4853C7.26428 24.2348 6 21.1826 6 18ZM18 3C9.7155 3 3 9.7155 3 18C3 26.2845 9.7155 33 18 33C26.2845 33 33 26.2845 33 18C33 9.7155 26.2845 3 18 3ZM14.6355 19.65C14.3755 19.3488 14.0066 19.1633 13.6098 19.1342C13.213 19.1051 12.8209 19.2348 12.5198 19.4948C12.2186 19.7547 12.0331 20.1237 12.0039 20.5205C11.9748 20.9173 12.1045 21.3093 12.3645 21.6105C13.5795 23.016 15.4245 24 18 24C20.574 24 22.4205 23.016 23.6355 21.6105C23.8955 21.3093 24.0252 20.9173 23.9961 20.5205C23.9669 20.1237 23.7814 19.7547 23.4802 19.4948C23.1791 19.2348 22.787 19.1051 22.3902 19.1342C21.9934 19.1633 21.6245 19.3488 21.3645 19.65C20.736 20.3775 19.728 21 18 21C16.272 21 15.264 20.3775 14.6355 19.65ZM12 15C12 14.6022 12.158 14.2206 12.4393 13.9393C12.7206 13.658 13.1022 13.5 13.5 13.5H13.515C13.9128 13.5 14.2944 13.658 14.5757 13.9393C14.857 14.2206 15.015 14.6022 15.015 15C15.015 15.3978 14.857 15.7794 14.5757 16.0607C14.2944 16.342 13.9128 16.5 13.515 16.5H13.5C13.1022 16.5 12.7206 16.342 12.4393 16.0607C12.158 15.7794 12 15.3978 12 15ZM22.5 13.5C22.1022 13.5 21.7206 13.658 21.4393 13.9393C21.158 14.2206 21 14.6022 21 15C21 15.3978 21.158 15.7794 21.4393 16.0607C21.7206 16.342 22.1022 16.5 22.5 16.5H22.515C22.9128 16.5 23.2944 16.342 23.5757 16.0607C23.857 15.7794 24.015 15.3978 24.015 15C24.015 14.6022 23.857 14.2206 23.5757 13.9393C23.2944 13.658 22.9128 13.5 22.515 13.5H22.5Z" fill="#68EDB6"/>
</svg>
