<svg width="662" height="61" viewBox="0 0 662 61" fill="none" xmlns="http://www.w3.org/2000/svg">
<path fill-rule="evenodd" clip-rule="evenodd" d="M621.412 58.3772C624.953 60.0692 628.882 60.9154 633.198 60.9154C637.348 60.9154 641.166 60.0976 644.653 58.4618C648.194 56.826 651.237 54.5982 653.783 51.7781C656.384 48.9015 658.403 45.6583 659.842 42.0485C661.281 38.3822 662 34.5751 662 30.6269C662 26.8479 661.308 23.1536 659.925 19.5438C658.597 15.8775 656.66 12.5778 654.115 9.64497C651.625 6.71181 648.609 4.37131 645.068 2.62279C641.581 0.874262 637.708 0 633.447 0C629.242 0 625.368 0.846169 621.827 2.53817C618.341 4.17398 615.297 6.42987 612.697 9.30651C610.096 12.1266 608.076 15.3698 606.637 19.0361C605.199 22.6459 604.479 26.4529 604.479 30.4577C604.479 34.2932 605.171 38.0438 606.554 41.71C607.938 45.3198 609.874 48.5914 612.365 51.5243C614.91 54.4009 617.926 56.6852 621.412 58.3772ZM617.857 39.7144C616.685 36.828 616.1 33.7422 616.1 30.4577C616.1 27.1864 616.764 24.0278 618.092 20.982C619.42 17.8799 621.357 15.3417 623.902 13.3674C626.447 11.3935 629.574 10.4065 633.281 10.4065C636.823 10.4065 639.866 11.3651 642.411 13.2828C642.792 13.5553 643.16 13.8403 643.514 14.1381L617.857 39.7144ZM622.707 46.6635L648.518 20.9349C649.814 23.8978 650.463 27.072 650.463 30.4577C650.463 33.729 649.799 36.916 648.471 40.0181C647.143 43.1201 645.206 45.6583 642.66 47.6326C640.115 49.6065 636.989 50.5935 633.281 50.5935C629.684 50.5935 626.586 49.6349 623.985 47.7172C623.542 47.3831 623.116 47.0318 622.707 46.6635Z" fill="white"/>
<path d="M480.501 10.66L447.632 51.6935V60.4923H494.362V50.2553H462.323L494.113 9.22189V0.423085H448.545V10.66H480.501Z" fill="white"/>
<path d="M544.243 60.4923V50.2553H514.777V34.6032H539.595V25.1275H514.777V10.66H543.496V0.423085H503.323V60.4923H544.243Z" fill="white"/>
<path fill-rule="evenodd" clip-rule="evenodd" d="M564.627 60.4923H553.173V0.423085H579.236C581.947 0.423085 584.437 0.986972 586.706 2.11508C589.03 3.2432 591.022 4.76596 592.682 6.68372C594.397 8.60148 595.698 10.7447 596.583 13.1136C597.524 15.4825 597.994 17.908 597.994 20.3896C597.994 24.2251 597.026 27.7503 595.089 30.9654C593.208 34.1802 590.635 36.4929 587.37 37.903L600.816 60.4923H588.2L576.081 40.3565H564.627V60.4923ZM564.627 30.1192H578.987C581.145 30.1192 582.915 29.1888 584.299 27.3272C585.737 25.4098 586.457 23.097 586.457 20.3896C586.457 18.5284 586.069 16.8645 585.295 15.3979C584.52 13.9317 583.524 12.7755 582.307 11.9293C581.145 11.0831 579.872 10.66 578.489 10.66H564.627V30.1192Z" fill="white"/>
<path fill-rule="evenodd" clip-rule="evenodd" d="M24.6517 0.423085H29.5489L54.0346 60.4923H47.8924L40.2562 41.71H13.7784L6.22517 60.4923H0L24.6517 0.423085ZM38.9281 37.0568L27.0588 7.36066L15.0234 37.0568H38.9281Z" fill="white"/>
<path fill-rule="evenodd" clip-rule="evenodd" d="M104.565 53.047C106.059 50.6781 106.806 47.9991 106.806 45.0098C106.806 41.3435 105.81 38.1284 103.818 35.3648C101.826 32.6009 99.1697 30.7115 95.8496 29.6961C98.5057 28.4553 100.581 26.566 102.075 24.0278C103.569 21.4897 104.316 18.7257 104.316 15.7364C104.316 13.1982 103.763 10.7731 102.656 8.46034C101.549 6.0914 99.9997 4.17398 98.0077 2.7074C96.0156 1.1843 93.6362 0.423085 90.8695 0.423085H62.4826V60.4923H90.2885C93.2766 60.4923 96.0156 59.8438 98.5057 58.5464C101.051 57.1929 103.071 55.3598 104.565 53.047ZM68.2928 27.7503V5.58404H89.0434C90.8695 5.58404 92.5019 6.0914 93.9406 7.10681C95.3793 8.06568 96.5136 9.39112 97.3437 11.0831C98.1737 12.7755 98.5887 14.6367 98.5887 16.6672C98.5887 18.6411 98.146 20.4742 97.2607 22.1666C96.4307 23.8021 95.241 25.1559 93.6916 26.2275C92.1975 27.2426 90.4821 27.7503 88.5454 27.7503H68.2928ZM99.6678 38.4107C100.553 40.1592 100.996 42.0204 100.996 43.9944C100.996 45.9687 100.498 47.8299 99.5017 49.5784C98.561 51.2704 97.2883 52.6524 95.6836 53.724C94.0789 54.7956 92.2805 55.3313 90.2885 55.3313H68.2928V32.5728H90.8695C92.8062 32.5728 94.5216 33.1086 96.0156 34.1802C97.565 35.2521 98.7824 36.6621 99.6678 38.4107Z" fill="white"/>
<path d="M152.21 11.6754C150.549 9.81421 148.336 8.2911 145.569 7.10681C142.803 5.86598 139.649 5.24557 136.107 5.24557C130.906 5.24557 127.115 6.26064 124.736 8.2911C122.356 10.2654 121.167 12.9728 121.167 16.4133C121.167 18.7822 121.748 20.6435 122.91 21.9974C124.072 23.3509 125.842 24.479 128.222 25.3814C130.657 26.2275 133.755 27.0734 137.518 27.9195C141.724 28.8219 145.348 29.8938 148.391 31.1346C151.435 32.3755 153.787 34.0674 155.447 36.211C157.107 38.2976 157.937 41.1462 157.937 44.7559C157.937 48.4222 157.024 51.4677 155.198 53.8932C153.372 56.3187 150.854 58.1234 147.644 59.308C144.435 60.4361 140.783 61 136.688 61C127.503 61 119.617 58.0953 113.032 52.2858L115.937 47.4633C118.04 49.7192 120.918 51.6654 124.57 53.3009C128.277 54.9367 132.372 55.7544 136.854 55.7544C141.502 55.7544 145.154 54.8802 147.81 53.1316C150.467 51.3831 151.795 48.7888 151.795 45.3482C151.795 42.8663 151.131 40.8923 149.803 39.4257C148.474 37.903 146.482 36.6621 143.826 35.7033C141.17 34.7444 137.905 33.8136 134.032 32.9112C129.937 31.9524 126.479 30.8808 123.657 29.6961C120.89 28.5118 118.787 26.9606 117.349 25.0429C115.91 23.1251 115.191 20.5308 115.191 17.2595C115.191 13.5367 116.076 10.4065 117.847 7.86836C119.673 5.27366 122.163 3.32781 125.317 2.03047C128.471 0.676935 132.095 0 136.19 0C140.064 0 143.55 0.620411 146.648 1.86123C149.747 3.04587 152.542 4.73787 155.032 6.93757L152.21 11.6754Z" fill="white"/>
<path fill-rule="evenodd" clip-rule="evenodd" d="M180.631 58.3772C184.007 60.0692 187.77 60.9154 191.92 60.9154C195.849 60.9154 199.501 60.0976 202.876 58.4618C206.251 56.826 209.184 54.5982 211.674 51.7781C214.164 48.9015 216.101 45.6583 217.484 42.0485C218.868 38.3822 219.56 34.5471 219.56 30.5423C219.56 26.7633 218.896 23.0689 217.567 19.4592C216.295 15.8494 214.413 12.5778 211.923 9.64497C209.489 6.71181 206.583 4.37131 203.208 2.62279C199.833 0.874262 196.098 0 192.003 0C188.074 0 184.422 0.846169 181.046 2.53817C177.671 4.17398 174.711 6.42987 172.165 9.30651C169.675 12.1266 167.738 15.3698 166.355 19.0361C164.972 22.6459 164.28 26.4529 164.28 30.4577C164.28 34.2932 164.944 38.0438 166.272 41.71C167.6 45.3198 169.481 48.563 171.916 51.4396C174.351 54.3163 177.256 56.6287 180.631 58.3772ZM171.667 39.8488C170.616 36.8595 170.09 33.729 170.09 30.4577C170.09 27.3556 170.588 24.3098 171.584 21.3204C172.636 18.3311 174.102 15.6518 175.983 13.2828C177.92 10.8577 180.216 8.93995 182.872 7.52989C185.584 6.11983 188.6 5.41481 191.92 5.41481C195.129 5.41481 198.062 6.0914 200.718 7.44527C203.374 8.79881 205.67 10.66 207.607 13.029C209.599 15.3979 211.121 18.0772 212.172 21.0666C213.224 24.0559 213.749 27.1864 213.749 30.4577C213.749 33.5597 213.251 36.6056 212.255 39.595C211.259 42.5281 209.793 45.2071 207.856 47.6326C205.975 50.0577 203.678 52.0039 200.967 53.4701C198.311 54.8802 195.295 55.5852 191.92 55.5852C188.71 55.5852 185.75 54.9086 183.038 53.5547C180.382 52.1447 178.086 50.2553 176.149 47.8864C174.213 45.5175 172.718 42.8382 171.667 39.8488Z" fill="white"/>
<path d="M230.514 60.4923V0.423085H236.324V55.2467H270.355V60.4923H230.514Z" fill="white"/>
<path d="M288.512 58.3772C291.722 60.0692 295.651 60.9154 300.299 60.9154C304.836 60.9154 308.682 60.1257 311.836 58.5464C314.99 56.9106 317.536 54.6828 319.472 51.8627C321.464 49.0426 322.903 45.8275 323.788 42.2178C324.674 38.5515 325.117 34.7163 325.117 30.7115V0.423085H319.306V30.7115C319.306 33.7574 319.002 36.7749 318.393 39.7642C317.84 42.697 316.844 45.3763 315.405 47.8018C313.967 50.1707 312.002 52.0601 309.512 53.4701C307.077 54.8802 303.979 55.5852 300.216 55.5852C296.564 55.5852 293.52 54.9086 291.086 53.5547C288.651 52.1447 286.714 50.2553 285.275 47.8864C283.837 45.5175 282.785 42.8663 282.121 39.9334C281.513 36.9441 281.208 33.8701 281.208 30.7115V0.423085H275.481V30.7115C275.481 34.5471 275.896 38.2695 276.726 41.8793C277.556 45.4329 278.94 48.6476 280.876 51.5243C282.813 54.4009 285.358 56.6852 288.512 58.3772Z" fill="white"/>
<path d="M380.801 5.66866H359.802V60.4923H353.992V5.66866H332.992V0.423085H380.801V5.66866Z" fill="white"/>
<path d="M429.221 60.4923V55.2467H395.439V32.3189H424.241V27.3272H395.439V5.66866H428.474V0.423085H389.629V60.4923H429.221Z" fill="white"/>
</svg>
