<?xml version="1.0" standalone="no"?>
<!DOCTYPE svg PUBLIC "-//W3C//DTD SVG 20010904//EN"
 "http://www.w3.org/TR/2001/REC-SVG-20010904/DTD/svg10.dtd">
<svg version="1.0" xmlns="http://www.w3.org/2000/svg"
 width="700.000000pt" height="700.000000pt" viewBox="0 0 700.000000 700.000000"
 preserveAspectRatio="xMidYMid meet">
<metadata>
Created by potrace 1.11, written by Peter Selinger 2001-2013
</metadata>
<g transform="translate(0.000000,700.000000) scale(0.100000,-0.100000)"
fill="#000000" stroke="none">
<path d="M0 3500 l0 -3500 3500 0 3500 0 0 3500 0 3500 -3500 0 -3500 0 0
-3500z m3250 2273 l0 -168 -595 -770 -595 -770 600 -3 600 -2 0 -190 0 -190
-875 0 -875 0 0 165 0 165 615 770 c338 424 615 773 615 775 0 3 -270 5 -600
5 l-600 0 0 190 0 190 855 0 855 0 0 -167z m2210 -23 l0 -190 -715 0 -715 0 0
-275 0 -275 640 0 640 0 0 -180 0 -180 -640 0 -640 0 0 -295 0 -295 730 0 730
0 0 -190 0 -190 -945 0 -945 0 0 1130 0 1130 930 0 930 0 0 -190z m-646 -2545
c403 -102 721 -474 802 -939 20 -110 14 -320 -11 -436 -43 -198 -153 -402
-299 -557 -272 -288 -672 -398 -1052 -287 -384 111 -687 469 -765 904 -21 115
-16 335 9 448 51 224 151 409 310 574 171 177 387 289 617 318 108 14 282 3
389 -25z m-2094 -12 c420 -143 627 -663 424 -1065 -42 -85 -87 -149 -141 -199
-45 -43 -119 -93 -150 -103 -13 -4 -23 -11 -23 -15 0 -4 112 -196 249 -427
l249 -419 -226 -3 c-125 -1 -231 -1 -237 2 -6 2 -112 173 -235 380 l-225 375
-217 1 -218 0 0 -380 0 -380 -215 0 -215 0 0 1130 0 1131 558 -3 c545 -3 558
-4 622 -25z"/>
<path d="M4443 2840 c-213 -39 -384 -192 -474 -423 -75 -195 -80 -429 -13
-631 l16 -48 484 483 c265 265 481 486 478 490 -12 20 -126 85 -185 106 -78
27 -222 38 -306 23z"/>
<path d="M4640 1965 l-485 -486 35 -29 c85 -71 230 -119 361 -120 294 -1 518
188 615 517 50 171 40 421 -22 561 l-19 43 -485 -486z"/>
<path d="M1970 2470 l0 -370 281 0 c175 0 297 4 325 11 64 16 136 84 176 167
32 64 33 71 33 187 0 110 -2 125 -27 178 -36 76 -121 159 -184 181 -39 13 -95
16 -326 16 l-278 0 0 -370z"/>
</g>
</svg>
